<svg data-name="Logo / Monogram 1 / Black" xmlns="http://www.w3.org/2000/svg" width="41.27" height="88">
  <path data-name="Path 82" d="M0 88v-9.26h20.76c1.34 0 4.92 0 8.25.2v-.15c-3.38-.72-6.46-1.54-7.66-1.85L0 71.53V63.1l21.29-5.4c1.2-.27 4.34-1.08 7.72-1.84l-8.4.16H0v-9.29h41.26v13.79L23.9 64.98c-2.1.5-6.58 1.6-10.1 2.36 3.52.7 8 1.74 10.1 2.27l17.37 4.52V88Zm0-46.54V0h13.74l4.45 17.43c.5 2.08 1.59 6.6 2.34 10.13l2.38-10.13L27.41 0h13.85v41.38H31.9V20.55c0-1.32 0-4.92.2-8.29h-.14c-.73 3.43-1.54 6.5-1.85 7.73l-5.4 21.39h-8.39l-5.34-21.34c-.28-1.23-1.1-4.35-1.85-7.78 0 3.26.17 7.02.17 8.43v20.77Z"/>
</svg>
