<svg xmlns="http://www.w3.org/2000/svg" width="179.103" height="84.642" viewBox="0 0 179.103 84.642">
  <g id="Logo_Monogram_3_Black" data-name="Logo / Monogram 3 / Black" transform="translate(0.5 0.5)">
    <path id="Union_5" data-name="Union 5" d="M6865.8,11662.36v-27.844l35.219-9.006c4.217-1.054,13.337-3.278,20.467-4.8v-.234c-7.13-1.407-16.25-3.509-20.467-4.56l-35.219-9.129v-28.072h83.647v18.952h-42.109c-2.7,0-9.942-.12-16.733-.354v.234c6.9,1.519,13.1,3.158,15.568,3.743l43.274,11v16.964l-43.16,10.88c-2.47.582-8.78,2.222-15.682,3.743v.234c6.547-.12,14.151-.354,16.847-.354h41.995v18.6Zm-29.757,0v-42.109c0-2.692.111-9.945.339-16.729h-.228c-1.519,6.9-3.152,13.1-3.75,15.557l-10.993,43.282h-16.964l-10.882-43.169c-.571-2.452-2.216-8.771-3.738-15.67h-.24c.125,6.55.366,14.151.366,16.844v42h-18.609v-83.642h27.846l9.006,35.211c1.054,4.211,3.269,13.34,4.8,20.473h.231c1.393-7.133,3.506-16.262,4.56-20.473l9.132-35.211H6855v83.642Z" transform="translate(-6771.346 -11578.719)" stroke="rgba(0,0,0,0)" stroke-miterlimit="10" stroke-width="1"/>
  </g>
</svg>
